<svg width="400" height="400" viewBox="0 0 400 400" fill="none" xmlns="http://www.w3.org/2000/svg">
  <rect width="400" height="400" fill="#F3F4F6"/>
  <circle cx="200" cy="200" r="80" fill="#E5E7EB"/>
  <path d="M160 200C160 178.909 177.909 161 199 161C220.091 161 238 178.909 238 200C238 221.091 220.091 239 199 239C177.909 239 160 221.091 160 200Z" fill="#D1D5DB"/>
  <path d="M180 180C180 168.954 188.954 160 200 160C211.046 160 220 168.954 220 180C220 191.046 211.046 200 200 200C188.954 200 180 191.046 180 180Z" fill="#9CA3AF"/>
  <text x="200" y="320" text-anchor="middle" font-family="Arial, sans-serif" font-size="24" fill="#6B7280">🍽️</text>
</svg>


